PathFileType	4	(X/Y/Z)	C:/Users/beibeiliu/ov580/test_trc\sequence.17_training_dense_right.trc
DataRate	CameraRate	NumFrames	NumMarkers	Units	OrigDataRate	OrigDataStartFrame	OrigNumFrames
120	120	18	19	mm	120	228	303
Frame#	Time	ThumbCMC			ThumbMCP			ThumbIP			ThumbTip			IndexMCP			IndexPIP			IndexTip			MiddleMCP			MiddlePIP			MiddleTip			RingMCP			RingPIP			RingTip			PinkyMCP			PinkyPIP			PinkyTip			BackHand1			BackHand2			BackHand3	
		X0	Y0	Z0	X1	Y1	Z1	X2	Y2	Z2	X3	Y3	Z3	X4	Y4	Z4	X5	Y5	Z5	X6	Y6	Z6	X7	Y7	Z7	X8	Y8	Z8	X9	Y9	Z9	X10	Y10	Z10	X11	Y11	Z11	X12	Y12	Z12	X13	Y13	Z13	X14	Y14	Z14	X15	Y15	Z15	X16	Y16	Z16	X17	Y17	Z17	X18	Y18	Z18	
227	1.89167	249.277	-5.9679	41.8714	262.289	18.0176	28.3803	272.781	29.5667	13.4564	285.091	37.624	9.9177	248.585	0.162386	-29.0908	251.43	15.8226	-47.8287	250.767	29.6037	-62.1971	226.692	18.5105	-23.2474	229.052	41.631	-5.73014	227.725	25.1418	20.7884	212.361	21.4379	-14.6244	217.976	35.7502	5.63749	218.007	14.2367	27.309	198.103	16.6746	-7.86614	206.511	30.3516	11.3481	210.605	12.4228	27.7874	208.377	-25.0519	8.51204	208.405	-33.6551	38.2524	231.648	-30.4516	27.4514	
228	1.9	257.012	-1.61303	39.3831	264.602	18.6066	29.2407	274.801	29.6501	12.3584	290.199	39.6171	7.77375	251.879	-2.16806	-25.7868	254.666	9.21757	-44.4398	257.664	25.5707	-65.9697	229.28	13.0155	-22.9083	229.259	40.1268	-10.1046	232.039	27.03	19.9938	216.037	15.1031	-15.4896	216.416	35.1198	5.58017	221.156	14.929	26.1629	196.606	13.1319	-9.16142	205.267	30.7336	4.67363	216.51	14.3113	25.3173	213.37	-26.9674	12.1594	212.92	-32.831	38.4901	240.695	-28.7142	25.7778	
229	1.90833	257.402	0.955882	43.2221	262.413	20.7785	29.5873	276.422	31.7968	14.5673	287.747	41.5793	9.9376	257.211	-4.18036	-25.1636	258.449	6.3582	-44.1617	257.236	19.8682	-67.8729	237.729	10.7676	-22.6365	229.493	39.6674	-9.53383	232.611	25.7997	18.2588	219.465	16.2961	-18.0301	218.856	33.6918	3.18295	220.587	19.1978	23.8019	201.11	12.8591	-11.6759	210.945	27.163	4.72451	216.262	12.2083	24.2391	216.105	-27.0906	9.70833	216.538	-33.0627	42.232	244.264	-28.1056	29.7575	
230	1.91667	255.26	1.06459	40.598	262.484	22.6169	24.487	274.538	33.9727	13.2874	289.256	43.5637	3.99454	262.09	-6.46217	-23.4284	260.483	2.48806	-42.4306	263.338	13.0842	-63.77	236.618	7.23254	-23.9466	232.467	37.6442	-12.8531	232.955	29.1706	14.8524	222.455	9.77034	-17.5405	218.953	30.8621	1.38124	224.436	14.288	22.9922	205.231	8.26584	-12.4045	208.863	25.07	3.82164	216.118	14.0645	20.973	218.298	-29.9904	15.2192	216.224	-34.4851	43.447	246.715	-25.8232	33.1741	
231	1.925	259.696	4.73636	43.532	265.623	24.5197	24.8254	277.197	35.5169	14.2753	288.354	44.0506	3.94205	267.384	-8.26325	-21.9322	267.905	0.344479	-46.3314	264.993	6.54412	-66.8085	238.127	4.45165	-24.1079	231.793	33.3628	-14.8623	229.91	26.182	13.3992	224.427	5.67829	-18.0908	220.605	27.0668	-4.88037	221.282	15.9026	20.4998	204.114	0.0516337	-13.6748	208.725	20.9483	2.31362	220.449	11.2703	20.961	224.663	-31.9948	16.2841	221.663	-35.7355	41.866	247.538	-27.2954	32.2709	
232	1.93333	257.086	3.9	45.475	261.384	23.3295	24.7794	276.847	35.1432	9.15242	288.848	46.6401	4.5782	268.989	-11.7359	-23.0532	269.293	-4.84599	-44.1096	269.721	-0.599427	-63.9562	241.225	1.97605	-25.7442	232.344	27.0363	-19.8705	231.133	19.9777	15.5736	223.11	0.505389	-20.6363	222.149	22.7625	-3.49736	225.744	11.7015	20.3281	210.864	-5.61624	-14.8155	212.486	15.7962	-0.798817	220.441	7.98699	17.3471	227.907	-35.5959	15.1794	222.897	-36.8225	47.8005	254.512	-25.606	38.0562	
233	1.94167	257.876	5.35173	45.7466	263.143	24.2932	24.9294	276.203	35.2673	8.41651	285.471	47.5608	6.90054	273.672	-13.3231	-16.4149	275.736	-9.64238	-42.5226	275.505	-5.95531	-59.7313	250.19	-3.99564	-23.5778	235.954	22.2437	-20.9863	233.955	19.6514	13.2593	228.941	-6.7017	-19.5988	219.97	15.6704	-8.78628	223.764	8.17538	20.2025	213.738	-14.9788	-12.6674	212.281	9.44355	-1.38475	218.746	2.92793	19.0922	232.475	-39.0806	22.4382	230.548	-38.4406	46.8098	253.899	-27.3613	39.5051	
234	1.95	256.643	7.17877	46.5875	261.317	22.6755	21.3976	274.191	35.9426	7.42653	283.726	46.0845	1.48136	276.882	-17.9168	-17.364	279.528	-15.0141	-38.4152	285.322	-10.1994	-59.7254	251.814	-11.0318	-21.5024	237.948	15.4175	-23.9167	233.57	15.0048	10.736	234.649	-13.2642	-18.8981	222.289	9.83966	-11.6514	227.779	5.00647	19.8804	216.34	-20.9471	-13.6208	216.7	1.64341	-6.62701	223.511	-0.94028	16.7222	239.215	-41.927	23.6164	233.685	-38.9201	49.9164	256.918	-26.3133	41.0795	
235	1.95833	258.022	7.77963	43.9166	259.54	23.7785	23.5642	273.086	36.8467	7.50564	280.706	49.2256	3.92275	283.946	-15.6545	-10.9725	289.252	-15.2933	-34.2108	288.014	-17.2461	-52.7927	257.65	-13.4784	-20.0993	238.258	11.0221	-21.9486	232.654	11.8145	6.82676	238.633	-20.1675	-15.5692	223.807	2.64848	-12.257	225.734	1.97084	16.5041	226.695	-27.2171	-10.9713	215.589	-3.8436	-3.24281	222.106	-6.34643	17.6151	246.657	-41.1387	28.7789	237.369	-38.9895	52.9136	261.691	-25.7127	44.3419	
236	1.96667	257.558	8.49453	46.0809	257.484	23.2466	25.4982	270.307	33.307	6.48077	280.313	46.8729	-1.11015	286.108	-18.9122	-6.44582	294.112	-16.3936	-28.2579	300.04	-17.9005	-51.286	261.619	-17.0065	-17.3985	243.961	5.40574	-23.927	233.752	5.62538	9.86747	241.571	-22.2365	-16.0699	226.3	-1.99793	-11.8701	227.814	-0.476895	15.8075	231.328	-28.7519	-11.9194	222.638	-9.08981	-4.57212	228.352	-10.7425	21.5131	246.385	-45.2615	28.9015	237.339	-38.4771	57.4259	262.539	-24.8717	46.1286	
237	1.975	257.102	9.2382	47.229	258.234	24.464	24.5988	268.215	32.6669	7.30856	275.457	44.613	-2.42762	289.292	-19.1315	-1.07405	294.445	-20.3499	-22.5004	303.391	-23.6975	-47.6962	264.912	-18.7962	-17.3243	243.073	0.869369	-21.7806	234.489	3.40042	9.85629	246.204	-24.5924	-15.1283	231.776	-5.53114	-10.559	227.252	-4.72135	16.8945	234.87	-34.7787	-8.87409	221.019	-14.0263	-3.18641	228.676	-14.1405	20.6584	254.874	-44.7672	33.576	243.086	-39.6957	59.2003	264.605	-24.446	52.4849	
238	1.98333	251.983	8.82197	50.861	253.8	20.1579	23.4104	263.246	34.3183	7.20208	268.01	44.8875	-1.95914	290.919	-17.9331	0.92618	300.149	-14.7519	-18.0897	306.977	-19.161	-40.3582	268.51	-20.5117	-13.1202	242.577	-3.57918	-20.07	233.35	1.31243	6.42786	251.434	-28.0682	-11.5767	231.685	-10.4123	-10.2858	229.573	-9.35885	21.3474	236.993	-39.3748	-7.23376	226.959	-18.7379	-4.61656	229.317	-13.1239	21.8269	257.284	-44.5539	38.6135	240.918	-41.9457	61.4654	266.617	-22.5078	53.9363	
239	1.99167	251.44	10.8798	47.7113	249.25	19.141	24.5299	255.741	32.837	7.00543	263.461	46.0609	-5.69377	294.099	-9.75378	5.14907	300.619	-11.4938	-15.2746	310.315	-13.8129	-36.6887	270.729	-19.4659	-10.5303	246.624	-7.26924	-22.4855	233.561	1.69291	7.35171	252.673	-28.9459	-11.7964	231.951	-12.2074	-7.67047	228.798	-11.336	21.437	242.596	-43.4607	-3.59938	230.143	-22.5665	-4.2153	227.041	-17.6402	23.7358	260.822	-42.1143	36.8251	246.946	-39.6491	61.7659	264.001	-20.5259	57.0513	
240	2	246.339	6.79957	49.4568	245.05	23.0572	23.4818	249.325	31.6123	7.01531	251.296	45.7683	-3.05369	293.461	-8.81522	3.85836	301.993	-8.89192	-17.1376	309.733	-6.97523	-33.7012	270.548	-17.9427	-10.8703	248.071	-6.07781	-21.2017	231.777	0.628521	9.02595	255.836	-28.6003	-8.12376	233.498	-12.8777	-6.39428	228.991	-9.63969	17.7803	244.91	-42.6824	-6.12866	231.041	-24.2891	-3.63308	229.485	-19.5668	21.2733	261.121	-44.2895	41.2241	246.468	-43.9621	66.6316	266.239	-19.6515	57.3879	
241	2.00833	244.128	7.93394	49.3586	239.858	22.071	21.7103	244.401	31.1871	4.24481	246.432	44.6583	-8.06762	290.94	-1.6957	5.89389	299.105	-1.36136	-12.8434	308.87	1.12148	-32.7466	271.204	-14.0799	-8.87447	246.58	-4.62158	-20.7294	228.394	-6.96626	5.21256	257.69	-27.778	-7.83811	232.251	-15.6239	-5.99425	226.778	-15.7434	19.0901	249.853	-43.2052	-2.52611	231.167	-27.0609	-1.68783	230.255	-22.5796	26.3662	266.094	-40.8727	42.8597	249.985	-39.6513	65.6538	266.623	-16.4397	56.6251	
242	2.01667	240.531	8.3785	47.7182	234.754	16.8201	21.6057	234.438	31.8254	3.83552	234.246	40.4791	-6.3583	287.807	7.26798	8.30397	296.049	6.67718	-13.3649	305.82	5.57246	-32.9944	270.484	-12.221	-8.22102	242.616	-4.46032	-19.6074	227.26	-9.17811	5.12508	259.466	-27.7972	-5.71345	233.266	-16.998	-6.54948	228.219	-19.1222	23.2216	253.601	-43.7528	-1.16994	229.994	-29.1666	0.84305	231.684	-22.2705	27.5138	268.818	-34.7652	39.8849	253.152	-39.8243	66.3448	262.477	-12.3587	59.6015	
243	2.025	232.32	8.44057	50.1946	226.278	15.7837	22.3854	227.104	28.2461	3.15051	222.402	41.3085	-5.33655	285.782	11.3674	2.36641	291.454	14.7203	-14.8354	301.527	15.485	-32.9832	269.893	-9.19854	-7.15452	243.075	-8.92114	-22.0615	226.559	-10.7604	7.2246	259.491	-23.4262	-7.0656	234.547	-18.3322	-6.73414	228.55	-18.1769	19.5384	256.727	-38.4846	-0.343172	233.446	-29.1753	0.935732	233.683	-24.8941	22.914	272.412	-34.1581	39.1249	256.141	-36.4892	64.4243	262.247	-7.20076	58.1273	
244	2.03333	227.111	5.37521	49.533	222.022	11.0515	19.8183	218.784	25.8541	0.544361	211.991	37.4024	-6.35248	278.716	14.6997	2.83897	286.463	19.1195	-16.9223	296.571	22.3847	-36.9722	267.253	-2.98575	-7.98849	240.569	-10.7152	-20.8341	226.745	-12.4024	9.39895	260.331	-24.0322	-8.5436	233.772	-25.0109	-8.23828	229.88	-20.926	23.0212	258.868	-39.7322	-1.59346	234.924	-31.4246	0.267842	235.649	-26.9966	27.7627	272.51	-26.7837	43.0218	257.337	-34.4032	64.9806	260.926	-2.96412	54.6019	
